<svg width="430" height="829" viewBox="0 0 430 829" fill="none" xmlns="http://www.w3.org/2000/svg">
<path d="M430 0H0V772H430V0Z" fill="#FFEBCC"/>
<path d="M430 563.646H0V847.728H430V563.646Z" fill="#F7CB86"/>
<path d="M115.761 222.803C115.761 228.903 116.144 234.902 116.887 240.774C122.202 282.904 114.715 325.624 97.4904 363.627C88.4494 383.576 83.3974 406.131 83.4946 430.012C83.8318 510.849 142.609 575.75 215.469 575.75C288.356 575.75 347.443 510.189 347.443 429.314V222.803C347.443 152.315 296.306 95.0798 232.956 94.2808C169.041 93.4692 115.772 151.877 115.772 222.803H115.761Z" fill="#FFDEB3"/>
<path d="M379.709 390.373C367.639 360.29 388.818 342.979 421.279 339.821C401.917 361.305 398.94 408.819 379.709 390.373Z" fill="#5EA18D"/>
<path d="M377.583 417.323C374.011 403.5 379.526 389.651 383.292 376.677C388.041 366.493 394.756 357.279 403.254 350.684C406.089 348.509 409.164 346.721 412.375 345.351C412.49 345.301 412.621 345.364 412.667 345.497C412.712 345.624 412.655 345.77 412.535 345.821C409.381 347.247 406.386 349.086 403.632 351.293C395.351 357.888 388.767 367.038 384.075 377.019C382.281 383.309 379.829 390.145 378.389 396.759C376.903 403.436 376.4 410.494 377.943 417.215C377.966 417.33 377.909 417.444 377.806 417.469C377.709 417.494 377.606 417.431 377.577 417.323H377.583Z" fill="#6BB69F"/>
<path d="M371.439 329.511C401.608 329.169 404.02 309.112 426.102 298.408C396.242 288.402 372.914 300.494 371.439 329.511Z" fill="#5EA18D"/>
<path d="M358.227 414.075C360.044 408.209 360.981 402.071 361.524 395.907C363.239 377.404 361.833 358.368 366.668 340.328C368.536 333.619 371.462 327.144 375.651 321.843C376.143 321.285 377.303 319.776 377.834 319.281C378.395 318.717 379.217 317.848 379.778 317.277C382.063 315.191 384.572 313.2 387.167 311.609C396.968 305.559 407.552 300.791 418.69 298.952C418.816 298.933 418.93 299.028 418.947 299.161C418.965 299.3 418.879 299.427 418.753 299.446C407.729 301.444 397.242 306.288 387.527 312.306C365.536 325.927 364.239 352.357 363.239 377.353C362.844 386.656 362.519 396.041 360.85 405.204C360.267 408.254 359.53 411.266 358.587 414.208C358.552 414.316 358.444 414.373 358.347 414.335C358.25 414.297 358.198 414.176 358.232 414.062L358.227 414.075Z" fill="#6BB69F"/>
<path d="M348.814 369.372C369.325 340.171 352.5 321.503 316.382 320.361C334.916 344.699 322.457 369.372 348.814 369.372Z" fill="#528C7C"/>
<path d="M348.42 417.241C350.414 400.608 350.163 383.652 347.488 367.133C347.043 364.147 346.431 360.862 345.837 357.888C343.602 348.89 339.693 340.196 334.041 333.234C331.515 330.152 328.566 327.476 325.223 325.567C325.109 325.504 325.069 325.352 325.126 325.231C325.183 325.111 325.32 325.06 325.429 325.117C328.858 326.994 331.91 329.657 334.527 332.739C340.316 339.778 344.305 348.541 346.625 357.679C348.146 364.844 349.22 372.175 349.826 379.505C350.5 387.901 350.632 396.353 350.094 404.755C349.809 408.953 349.38 413.145 348.803 417.304C348.786 417.419 348.689 417.501 348.586 417.482C348.483 417.463 348.414 417.362 348.426 417.247L348.42 417.241Z" fill="#6BB69F"/>
<path d="M372.68 304.337C392.099 264.026 357.667 262.999 311.77 282.048C336.744 284.508 347.62 325.884 372.68 304.337Z" fill="#528C7C"/>
<path d="M368.919 417.299C366.97 402.505 366.719 387.401 368.616 372.575C370.228 357.73 374.886 343.488 376.943 328.783C378.56 316.9 375.697 307.065 368.416 298.213C366.765 296.152 364.947 294.167 363.084 292.353C357.175 287.198 349.889 284.262 342.539 282.689C335.961 281.326 329.189 281.13 322.52 281.872C322.394 281.884 322.286 281.783 322.269 281.643C322.257 281.504 322.349 281.383 322.469 281.371C329.172 280.546 335.99 280.667 342.654 281.973C350.094 283.527 357.512 286.494 363.547 291.726C365.479 293.59 367.273 295.543 368.982 297.655C376.446 306.665 379.406 316.773 377.789 328.91C375.669 343.71 370.977 357.807 369.296 372.683C367.382 387.432 367.525 402.467 369.296 417.242C369.308 417.356 369.239 417.464 369.136 417.477C369.034 417.489 368.936 417.413 368.925 417.299H368.919Z" fill="#6BB69F"/>
<g style="mix-blend-mode:multiply" opacity="0.3">
<path d="M379.446 317.602C379.115 314.761 378.423 311.971 377.429 309.327C377.166 309.733 376.914 310.151 376.669 310.576C377.469 312.897 378.046 315.307 378.32 317.767C378.743 321.401 378.595 325.104 378.149 328.763C378.137 328.864 378.12 328.959 378.109 329.061C378.515 329.01 378.932 328.966 379.32 328.902C379.755 325.18 379.898 321.369 379.446 317.602Z" fill="#64AB97"/>
</g>
<g style="mix-blend-mode:multiply" opacity="0.3">
<path d="M352.855 282.821C361.21 282.58 365.993 278.249 369.085 271.648C363.221 269.492 354.821 269.587 344.745 271.546C346.454 275.275 348.78 278.927 351.797 282.434C351.512 291.35 351.843 300.291 352.426 309.175C352.82 309.339 353.22 309.492 353.62 309.625C352.992 300.703 352.62 291.743 352.86 282.814L352.855 282.821Z" fill="#599785"/>
</g>
<path d="M350.517 279.27C327.738 253.316 341.499 219.01 384.989 206.867C367.136 232.143 379.452 279.27 350.517 279.27Z" fill="#5EA18D"/>
<path d="M353.689 417.247C355.478 399.6 355.941 381.807 355.272 364.077C354.472 337.444 350.203 311.021 350.214 284.324C350.237 273.189 351.237 262.042 353.529 251.192C356.244 240.476 360.713 230.133 367.41 221.776C370.091 218.44 373.223 215.542 376.703 213.285C376.811 213.215 376.949 213.253 377.012 213.374C377.074 213.494 377.04 213.653 376.926 213.716C373.508 215.967 370.439 218.859 367.816 222.181C361.278 230.501 356.872 240.786 354.209 251.37C350.054 270.862 350.586 291.065 352.186 310.887C355.295 346.195 358.324 381.908 354.055 417.285C354.043 417.399 353.946 417.482 353.843 417.469C353.74 417.456 353.666 417.349 353.678 417.235L353.689 417.247Z" fill="#6BB69F"/>
<g style="mix-blend-mode:multiply" opacity="0.3">
<path d="M353.192 362.224C353.512 361.616 353.809 361.02 354.089 360.423C353.666 351.045 352.946 341.698 352.175 332.358C351.786 331.939 351.392 331.527 350.963 331.134C351.872 341.489 352.723 351.844 353.192 362.231V362.224Z" fill="#599785"/>
</g>
<path d="M341.293 403.582C355.415 401.083 369.799 400.69 384.584 403.582L376.806 573.448C367.365 576.859 357.964 576.542 348.58 573.448L341.288 403.582H341.293Z" fill="#FFAD69"/>
<g style="mix-blend-mode:multiply" opacity="0.3">
<path d="M359.13 553.309C349.837 533.036 345.562 429.08 344.631 403.043L341.293 403.582L348.586 573.448C357.964 576.543 367.37 576.86 376.811 573.448L377.057 568.084C369.874 566.029 363.004 561.742 359.135 553.309H359.13Z" fill="#ECB69B"/>
</g>
<path d="M65.7213 413.766C66.6528 411.896 67.1729 409.81 67.2186 407.666C67.2415 406.607 67.1386 405.529 66.9271 404.496C66.7157 403.462 66.1213 402.321 66.2985 401.274C66.5557 399.752 68.6073 399.131 69.636 398.44C71.0247 397.514 72.042 396.087 72.6135 394.407C73.1849 392.727 73.2421 390.862 72.7278 389.188C72.4649 388.332 72.0877 387.514 71.7562 386.69C71.4419 385.91 71.0304 384.94 71.1504 384.058C71.2705 383.177 72.0591 382.758 72.7335 382.397C73.4821 381.997 74.1851 381.56 74.688 380.799C75.6538 379.328 75.448 377.432 75.4309 375.72C75.4195 374.737 75.4538 373.76 75.9167 372.898C76.4481 371.902 77.2768 371.135 77.9055 370.216C79.197 368.326 79.7971 365.916 79.5856 363.564C79.477 362.359 77.7626 362.346 77.8712 363.564C78.0655 365.707 77.5397 367.8 76.2767 369.448C75.1623 370.907 74.0193 372.15 73.7907 374.141C73.6021 375.777 74.1279 377.774 73.505 379.321C73.1964 380.089 72.522 380.412 71.8762 380.761C71.1276 381.16 70.4075 381.611 69.9446 382.403C68.9616 384.065 69.6303 386.018 70.2875 387.66C70.9447 389.302 71.5905 390.818 71.2933 392.65C71.0133 394.356 70.1332 395.903 68.7845 396.804C67.5501 397.628 66.0756 398.161 65.1955 399.499C63.8811 401.49 65.1441 403.678 65.4241 405.789C65.7442 408.199 65.3098 410.678 64.2583 412.809C63.7268 413.881 65.207 414.844 65.7384 413.766H65.7213Z" fill="#C36363"/>
<path d="M63.6868 413.818C64.6069 412.454 64.0183 410.622 63.1153 409.449C62.6524 408.846 62.0695 408.364 61.5894 407.781C61.018 407.09 60.8465 406.373 60.8808 405.448C60.9379 403.869 61.1951 402.277 60.2064 400.964C59.5378 400.07 58.532 399.62 57.5662 399.246C56.8004 398.948 55.6174 398.739 55.0688 398.003C54.263 396.912 55.8917 395.67 56.4575 394.966C57.3547 393.85 58.0634 392.125 57.1661 390.755C56.7261 390.089 56.0517 389.81 55.3659 389.582C54.583 389.322 53.7943 389.081 53.0285 388.758C51.6741 388.174 50.1597 387.217 49.7425 385.555C49.4567 384.427 49.5996 382.721 50.7483 382.245C51.5598 381.909 51.5541 380.749 50.7483 380.413C48.5309 379.481 46.1821 378.377 44.4962 376.469C43.7361 375.606 43.1646 374.566 42.9417 373.374C42.6103 371.592 43.1018 369.747 42.8903 367.94C42.7532 366.741 41.033 366.729 41.1758 367.94C41.4044 369.918 40.9072 371.909 41.2844 373.875C41.5587 375.308 42.256 376.602 43.1532 377.661C45.0505 379.912 47.7423 381.174 50.2911 382.245V380.413C47.8051 381.44 47.3136 384.94 48.5595 387.306C49.3024 388.726 50.6283 389.677 51.9541 390.311C52.6742 390.654 53.4114 390.933 54.1601 391.18C54.6973 391.358 55.9203 391.465 55.8631 392.315C55.806 393.165 55.1259 393.754 54.6516 394.281C54.1086 394.877 53.5714 395.53 53.3086 396.342C52.9257 397.534 53.2457 398.815 54.1201 399.614C54.9487 400.368 56.0403 400.666 57.0347 401.047C57.9548 401.402 59.0692 401.852 59.2406 403.07C59.3721 404.014 59.132 404.985 59.1606 405.929C59.1892 406.874 59.4292 407.794 59.9664 408.58C60.6579 409.595 63.2296 411.345 62.2067 412.86C61.5437 413.843 63.0353 414.788 63.6868 413.818Z" fill="#C36363"/>
<path d="M65.3784 415.384C65.0927 413.152 64.9898 410.888 65.0355 408.63C65.0812 406.373 65.247 404.211 64.9841 402.01C64.7498 400.051 64.0868 398.256 63.4411 396.424C62.8524 394.762 62.1838 392.924 62.3895 391.097C62.5953 389.271 63.7325 388.066 64.5212 386.62C65.3098 385.175 65.6184 383.634 65.2127 381.998C64.8069 380.362 63.9211 379.087 63.5268 377.521C63.0467 375.606 64.2754 374.008 64.8298 372.283C66.2128 367.977 65.4641 363.241 64.7441 358.872C64.544 357.667 62.8924 358.18 63.0925 359.379C63.744 363.336 64.4355 367.597 63.2582 371.516C62.7267 373.285 61.5551 374.858 61.6866 376.811C61.7952 378.472 62.5838 379.88 63.1839 381.364C63.4582 382.048 63.7039 382.784 63.6982 383.539C63.6982 384.395 63.3382 385.143 62.9382 385.847C62.1266 387.261 61.1208 388.542 60.7951 390.229C60.0636 394.071 62.3324 397.483 63.0982 401.078C63.6068 403.443 63.3896 405.916 63.3268 408.32C63.2582 410.85 63.4068 413.367 63.7268 415.878C63.8811 417.083 65.5327 416.57 65.3784 415.371V415.384Z" fill="#E17171"/>
<path d="M68.4706 418.7C68.7677 415.992 69.1621 413.297 69.6364 410.615C65.5445 409.391 61.4527 409.327 57.3665 410.615C58.058 413.931 58.5952 417.216 58.9781 420.469C60.6012 434.337 56.5322 448.091 48.7656 459.105C46.1082 462.872 44.6852 467.679 44.8223 472.897C45.1824 486.841 82.1177 488.484 82.2092 472.897C82.2377 468.357 80.8947 463.145 78.6659 459.733C70.888 447.812 66.8532 433.31 68.4763 418.7H68.4706Z" fill="#F7CB86"/>
<g style="mix-blend-mode:multiply" opacity="0.3">
<g style="mix-blend-mode:multiply">
<path d="M51.9541 467.938C51.9541 456.296 64.3269 434.33 62.7038 420.462C62.321 417.209 61.7838 413.924 61.0922 410.608C62.4981 410.164 63.904 409.891 65.3098 409.764C62.6581 409.517 60.0121 409.777 57.3604 410.608C58.0519 413.924 58.5891 417.209 58.972 420.462C60.5951 434.33 56.526 448.084 48.7595 459.098C46.1021 462.865 44.6791 467.672 44.8162 472.89C45.0105 480.538 56.2117 484.488 66.3042 483.917C57.4576 483.448 51.9598 479.428 51.9598 467.938H51.9541Z" fill="#F7F1D9"/>
</g>
</g>
<path d="M85.5577 574.172H76.871L86.0263 491.338H41.5644L50.1482 574.172H41.4559L31.7405 481.623H95.9245L85.5577 574.172Z" fill="#F47E20"/>
<path d="M85.5691 526.017H40.1014V531.064H85.5691V526.017Z" fill="#F47E20"/>
<path d="M156.676 331.221H295.227V326.287H156.676V331.221Z" fill="#FFAD69"/>
<path d="M271.928 274.95C275.368 273.783 278.443 273.834 281.209 274.95V326.288H271.928V274.95Z" fill="#FFEBCC"/>
<path d="M261.069 274.949C264.344 273.155 267.424 273.263 270.35 274.949V326.287H261.069V274.949Z" fill="#FFAD69"/>
<path d="M250.217 274.95C253.503 273.472 256.589 273.548 259.498 274.95V326.288H250.217V274.95Z" fill="#FFEBCC"/>
<path d="M169.763 326.281C168.431 322.635 168.5 319.211 169.763 315.983H216.03C217.442 319.934 217.631 323.434 216.03 326.281H169.763Z" fill="#FFEBCC"/>
<path d="M161.533 315.977C160.202 312.331 160.27 308.906 161.533 305.679H207.801C209.213 309.629 209.401 313.13 207.801 315.977H161.533Z" fill="#FFAD69"/>
<path d="M241.622 275.202C245.165 275.342 247.954 276.8 250.097 279.4L231.243 326.28L222.768 322.082L241.622 275.202Z" fill="#FFDEB3"/>
<path fill-rule="evenodd" clip-rule="evenodd" d="M192.359 280.517C195.765 280.517 199.28 280.288 199.863 275.837C200.223 273.072 201.103 266.338 197.737 265.444C193.685 264.372 194.325 269.299 194.142 272.039C194.022 273.82 192.296 274.505 192.434 272.343C192.542 270.548 192.748 268.748 192.748 266.947C192.748 263.243 192.908 258.729 190.29 255.951C187.919 253.427 184.147 253.516 182.541 256.966C180.889 260.51 181.564 264.949 181.592 268.773C181.627 272.996 181.878 277.213 181.878 281.423C178.586 280.954 179.575 277.524 179.495 274.645C179.426 272.102 177.575 268.025 174.94 271.068C172.963 273.351 173.62 279.134 174.049 281.981C174.649 285.945 176.843 287.352 180.307 287.467C182.838 287.549 181.855 292.495 181.81 294.524C181.77 296.3 181.93 296.82 183.438 297.593C184.884 298.329 186.702 298.57 188.267 298.354C189.462 298.189 190.696 297.657 191.805 297.168C192.559 296.832 192.154 292.723 192.159 291.797C192.188 288.145 191.719 284.106 192.354 280.517H192.359Z" fill="#5EA18D"/>
<path d="M171.934 296.859C171.934 295.311 172.14 293.821 172.494 292.407H201.326C201.68 293.828 201.886 295.318 201.886 296.859C201.886 300.105 201.035 303.124 199.583 305.686H174.237C172.786 303.124 171.934 300.105 171.934 296.859Z" fill="#FEF8F8"/>
<path d="M129.658 221.225H49.1755V331.294H129.658V221.225Z" fill="#FFAD69"/>
<path d="M120.423 231.205H58.4108V321.319H120.423V231.205Z" fill="#FFEBCC"/>
<path d="M104.261 247.761H74.5782V304.761H104.261V247.761Z" fill="#FFAD69"/>
<path d="M219.574 188.251V95.0361C216.715 95.0361 212.713 95.0361 211.569 96.9385V188.251H219.574Z" fill="#FFAD69"/>
<path d="M215.569 212.788C224.284 212.788 231.348 205.943 231.348 197.499C231.348 189.056 224.284 182.211 215.569 182.211C206.855 182.211 199.791 189.056 199.791 197.499C199.791 205.943 206.855 212.788 215.569 212.788Z" fill="#FCEEEE"/>
<path d="M260.734 198.99C230.194 205.293 200.065 205.483 170.399 198.99C170.399 175.312 187.698 156.117 209.037 156.117H222.096C243.435 156.117 260.734 175.312 260.734 198.99Z" fill="#FFAD69"/>
</svg>
